<svg width="32" height="33" viewBox="0 0 32 33" fill="none" xmlns="http://www.w3.org/2000/svg">
<path d="M15.9998 3.5C8.83163 3.5 2.99976 9.33187 2.99976 16.5C2.99976 23.6681 8.83163 29.5 15.9998 29.5C23.1679 29.5 28.9998 23.6681 28.9998 16.5C28.9998 9.33187 23.1679 3.5 15.9998 3.5ZM20.9998 17.5H16.9998V21.5C16.9998 21.7652 16.8944 22.0196 16.7069 22.2071C16.5193 22.3946 16.265 22.5 15.9998 22.5C15.7345 22.5 15.4802 22.3946 15.2926 22.2071C15.1051 22.0196 14.9998 21.7652 14.9998 21.5V17.5H10.9998C10.7345 17.5 10.4802 17.3946 10.2926 17.2071C10.1051 17.0196 9.99976 16.7652 9.99976 16.5C9.99976 16.2348 10.1051 15.9804 10.2926 15.7929C10.4802 15.6054 10.7345 15.5 10.9998 15.5H14.9998V11.5C14.9998 11.2348 15.1051 10.9804 15.2926 10.7929C15.4802 10.6054 15.7345 10.5 15.9998 10.5C16.265 10.5 16.5193 10.6054 16.7069 10.7929C16.8944 10.9804 16.9998 11.2348 16.9998 11.5V15.5H20.9998C21.265 15.5 21.5193 15.6054 21.7069 15.7929C21.8944 15.9804 21.9998 16.2348 21.9998 16.5C21.9998 16.7652 21.8944 17.0196 21.7069 17.2071C21.5193 17.3946 21.265 17.5 20.9998 17.5Z" fill="#2F65C6"/>
</svg>
