<svg width="24" height="24" viewBox="0 0 24 24" fill="none" xmlns="http://www.w3.org/2000/svg">
<path d="M12 2.25C6.61547 2.25 2.25 6.61547 2.25 12C2.25 17.3845 6.61547 21.75 12 21.75C17.3845 21.75 21.75 17.3845 21.75 12C21.75 6.61547 17.3845 2.25 12 2.25ZM16.2825 12.218C16.2131 12.2879 16.1307 12.3435 16.0398 12.3816C15.949 12.4196 15.8515 12.4394 15.753 12.4398C15.6545 12.4402 15.5569 12.4212 15.4657 12.3838C15.3745 12.3465 15.2916 12.2916 15.2217 12.2222L12.75 9.76969V16.0312C12.75 16.2302 12.671 16.4209 12.5303 16.5616C12.3897 16.7022 12.1989 16.7812 12 16.7812C11.8011 16.7812 11.6103 16.7022 11.4697 16.5616C11.329 16.4209 11.25 16.2302 11.25 16.0312V9.76969L8.77828 12.2222C8.70829 12.2916 8.62532 12.3465 8.53411 12.3838C8.4429 12.4211 8.34523 12.4401 8.24669 12.4396C8.14814 12.4392 8.05064 12.4194 7.95977 12.3812C7.86889 12.3431 7.78641 12.2875 7.71703 12.2175C7.64766 12.1475 7.59275 12.0645 7.55544 11.9733C7.51813 11.8821 7.49915 11.7845 7.49958 11.6859C7.50002 11.5874 7.51986 11.4899 7.55797 11.399C7.59609 11.3081 7.65173 11.2256 7.72172 11.1562L11.4717 7.43484C11.6122 7.29544 11.8021 7.21722 12 7.21722C12.1979 7.21722 12.3878 7.29544 12.5283 7.43484L16.2783 11.1562C16.3484 11.2256 16.4041 11.3082 16.4422 11.3991C16.4804 11.49 16.5002 11.5876 16.5006 11.6862C16.501 11.7849 16.4819 11.8826 16.4445 11.9738C16.4071 12.0651 16.352 12.148 16.2825 12.218Z" fill="white"/>
</svg>
