<svg width="18" height="19" viewBox="0 0 18 19" fill="none" xmlns="http://www.w3.org/2000/svg">
<g id="calendar-clear">
<path id="Vector" d="M16.875 5.00001C16.875 4.40327 16.6379 3.83098 16.216 3.40902C15.794 2.98706 15.2217 2.75001 14.625 2.75001H14.0625V2.20333C14.0625 1.90063 13.8298 1.64083 13.5271 1.62571C13.451 1.62205 13.375 1.63386 13.3037 1.66044C13.2323 1.68702 13.1671 1.72781 13.112 1.78034C13.0568 1.83287 13.0129 1.89604 12.983 1.96603C12.953 2.03602 12.9375 2.11137 12.9375 2.18751V2.75001H5.0625V2.20333C5.0625 1.90063 4.82977 1.64083 4.52707 1.62571C4.45102 1.62205 4.37501 1.63386 4.30365 1.66044C4.2323 1.68702 4.16708 1.72781 4.11196 1.78034C4.05684 1.83287 4.01295 1.89604 3.98296 1.96603C3.95297 2.03602 3.93751 2.11137 3.9375 2.18751V2.75001H3.375C2.77826 2.75001 2.20597 2.98706 1.78401 3.40902C1.36205 3.83098 1.125 4.40327 1.125 5.00001V5.42188C1.125 5.45918 1.13982 5.49495 1.16619 5.52132C1.19256 5.54769 1.22833 5.56251 1.26562 5.56251H16.7344C16.7717 5.56251 16.8074 5.54769 16.8338 5.52132C16.8602 5.49495 16.875 5.45918 16.875 5.42188V5.00001ZM1.125 15.125C1.125 15.7217 1.36205 16.294 1.78401 16.716C2.20597 17.138 2.77826 17.375 3.375 17.375H14.625C15.2217 17.375 15.794 17.138 16.216 16.716C16.6379 16.294 16.875 15.7217 16.875 15.125V6.82813C16.875 6.79084 16.8602 6.75507 16.8338 6.7287C16.8074 6.70233 16.7717 6.68751 16.7344 6.68751H1.26562C1.22833 6.68751 1.19256 6.70233 1.16619 6.7287C1.13982 6.75507 1.125 6.79084 1.125 6.82813V15.125Z" fill="#2F65C6"/>
</g>
</svg>
