<svg width="24" height="24" viewBox="0 0 24 24" fill="none" xmlns="http://www.w3.org/2000/svg">
<path d="M21 18.75H3C2.80109 18.75 2.61032 18.671 2.46967 18.5303C2.32902 18.3897 2.25 18.1989 2.25 18C2.25 17.8011 2.32902 17.6103 2.46967 17.4697C2.61032 17.329 2.80109 17.25 3 17.25H21C21.1989 17.25 21.3897 17.329 21.5303 17.4697C21.671 17.6103 21.75 17.8011 21.75 18C21.75 18.1989 21.671 18.3897 21.5303 18.5303C21.3897 18.671 21.1989 18.75 21 18.75ZM19.5 21H4.5C4.30109 21 4.11032 20.921 3.96967 20.7803C3.82902 20.6397 3.75 20.4489 3.75 20.25C3.75 20.0511 3.82902 19.8603 3.96967 19.7197C4.11032 19.579 4.30109 19.5 4.5 19.5H19.5C19.6989 19.5 19.8897 19.579 20.0303 19.7197C20.171 19.8603 20.25 20.0511 20.25 20.25C20.25 20.4489 20.171 20.6397 20.0303 20.7803C19.8897 20.921 19.6989 21 19.5 21ZM1.5 12.75H0.75V15C0.75 15.3978 0.908035 15.7794 1.18934 16.0607C1.47064 16.342 1.85218 16.5 2.25 16.5H4.5V15.75C4.49913 14.9546 4.18278 14.1921 3.62036 13.6296C3.05794 13.0672 2.29538 12.7509 1.5 12.75Z" fill="white"/>
<path d="M22.5 11.25H23.25V8.25H22.5C21.3069 8.24864 20.1631 7.77409 19.3195 6.93047C18.4759 6.08686 18.0014 4.94306 18 3.75V3H6V3.75C5.99864 4.94306 5.52409 6.08686 4.68047 6.93047C3.83686 7.77409 2.69306 8.24864 1.5 8.25H0.75V11.25H1.5C2.69306 11.2514 3.83686 11.7259 4.68047 12.5695C5.52409 13.4131 5.99864 14.5569 6 15.75V16.5H18V15.75C18.0014 14.5569 18.4759 13.4131 19.3195 12.5695C20.1631 11.7259 21.3069 11.2514 22.5 11.25ZM12 14.25C11.11 14.25 10.24 13.9861 9.49993 13.4916C8.75991 12.9971 8.18314 12.2943 7.84254 11.4721C7.50195 10.6498 7.41283 9.74501 7.58647 8.87209C7.7601 7.99918 8.18868 7.19736 8.81802 6.56802C9.44736 5.93868 10.2492 5.5101 11.1221 5.33647C11.995 5.16283 12.8998 5.25195 13.7221 5.59254C14.5443 5.93314 15.2471 6.50991 15.7416 7.24993C16.2361 7.98995 16.5 8.85998 16.5 9.75C16.4986 10.9431 16.0241 12.0869 15.1805 12.9305C14.3369 13.7741 13.1931 14.2486 12 14.25Z" fill="white"/>
<path d="M12 12.75C13.6569 12.75 15 11.4069 15 9.75C15 8.09315 13.6569 6.75 12 6.75C10.3431 6.75 9 8.09315 9 9.75C9 11.4069 10.3431 12.75 12 12.75Z" fill="white"/>
<path d="M19.5 15.75V16.5H21.75C22.1478 16.5 22.5294 16.342 22.8107 16.0607C23.092 15.7794 23.25 15.3978 23.25 15V12.75H22.5C21.7046 12.7509 20.9421 13.0672 20.3796 13.6296C19.8172 14.1921 19.5009 14.9546 19.5 15.75ZM22.5 6.75H23.25V4.5C23.25 4.10218 23.092 3.72064 22.8107 3.43934C22.5294 3.15804 22.1478 3 21.75 3H19.5V3.75C19.5009 4.54538 19.8172 5.30794 20.3796 5.87036C20.9421 6.43278 21.7046 6.74913 22.5 6.75ZM4.5 3.75V3H2.25C1.85218 3 1.47064 3.15804 1.18934 3.43934C0.908035 3.72064 0.75 4.10218 0.75 4.5V6.75H1.5C2.29538 6.74913 3.05794 6.43278 3.62036 5.87036C4.18278 5.30794 4.49913 4.54538 4.5 3.75Z" fill="white"/>
</svg>
