<svg width="48" height="48" viewBox="0 0 48 48" fill="none" xmlns="http://www.w3.org/2000/svg">
<path d="M24.4985 8C15.9519 8 8.99854 14.9534 8.99854 23.5C8.99854 32.0466 15.9519 39 24.4985 39C33.0451 39 39.9985 32.0466 39.9985 23.5C39.9985 14.9534 33.0451 8 24.4985 8ZM30.1106 27.4264C30.226 27.536 30.3182 27.6676 30.3819 27.8135C30.4456 27.9593 30.4795 28.1164 30.4816 28.2756C30.4836 28.4347 30.4538 28.5926 30.3938 28.74C30.3338 28.8874 30.245 29.0214 30.1324 29.1339C30.0199 29.2464 29.886 29.3353 29.7386 29.3953C29.5911 29.4552 29.4332 29.4851 29.2741 29.483C29.115 29.481 28.9578 29.4471 28.812 29.3834C28.6662 29.3197 28.5346 29.2274 28.425 29.112L24.4985 25.1864L20.5721 29.112C20.3467 29.3262 20.0465 29.4438 19.7356 29.4399C19.4247 29.4359 19.1277 29.3106 18.9078 29.0907C18.6879 28.8709 18.5627 28.5738 18.5587 28.2629C18.5547 27.952 18.6723 27.6518 18.8865 27.4264L22.8122 23.5L18.8865 19.5736C18.6723 19.3482 18.5547 19.048 18.5587 18.7371C18.5627 18.4262 18.6879 18.1291 18.9078 17.9093C19.1277 17.6894 19.4247 17.5641 19.7356 17.5601C20.0465 17.5562 20.3467 17.6738 20.5721 17.888L24.4985 21.8136L28.425 17.888C28.6504 17.6738 28.9505 17.5562 29.2614 17.5601C29.5724 17.5641 29.8694 17.6894 30.0893 17.9093C30.3091 18.1291 30.4344 18.4262 30.4384 18.7371C30.4424 19.048 30.3247 19.3482 30.1106 19.5736L26.1849 23.5L30.1106 27.4264Z" fill="#2F65C6"/>
</svg>
