<svg width="104" height="28" viewBox="0 0 104 28" fill="none" xmlns="http://www.w3.org/2000/svg">
<path fill-rule="evenodd" clip-rule="evenodd" d="M17.5864 3.9133C16.1618 2.48799 14.2715 1.62352 12.2616 1.47818V0.79634C12.2616 0.624117 12.1932 0.458948 12.0714 0.337168C11.9496 0.215388 11.7845 0.146973 11.6122 0.146973C11.5853 0.146973 11.5586 0.148644 11.5321 0.15193C11.3893 0.169587 11.2555 0.234373 11.1526 0.337223C11.0308 0.459003 10.9624 0.624172 10.9624 0.796395V1.47823C8.9525 1.62357 7.06219 2.48805 5.63761 3.91336C4.84731 4.6946 4.21995 5.62494 3.79191 6.65046C3.36387 7.67598 3.14365 8.77627 3.14404 9.88754V11.1928C3.14404 13.0694 7.57922 13.5889 9.48836 13.7188H9.53382C9.61909 13.7218 9.70412 13.7079 9.78405 13.6781C9.86398 13.6482 9.93724 13.6029 9.99965 13.5447C10.0621 13.4865 10.1124 13.4166 10.1478 13.3389C10.1832 13.2613 10.2029 13.1774 10.2059 13.0922C10.2089 13.0069 10.1951 12.9219 10.1652 12.8419C10.1353 12.762 10.09 12.6887 10.0318 12.6263C9.9736 12.5639 9.90369 12.5136 9.82604 12.4782C9.7484 12.4428 9.66455 12.4231 9.57927 12.4201C6.24153 12.1928 4.73499 11.511 4.46875 11.1863C4.83889 10.7447 7.0277 9.96541 10.9629 9.88748V18.9786C10.9629 19.1509 11.0313 19.316 11.1531 19.4378C11.2748 19.5596 11.44 19.628 11.6122 19.628C11.7845 19.628 11.9496 19.5596 12.0714 19.4378C12.1932 19.316 12.2616 19.1509 12.2616 18.9786V9.88748C16.1967 9.96541 18.3851 10.7446 18.7553 11.1862C18.489 11.5109 16.9825 12.1927 13.6447 12.42C13.5595 12.423 13.4756 12.4428 13.398 12.4781C13.3203 12.5135 13.2504 12.5639 13.1922 12.6263C13.134 12.6887 13.0887 12.762 13.0588 12.8419C13.029 12.9218 13.0151 13.0068 13.0181 13.0921C13.0211 13.1774 13.0408 13.2612 13.0762 13.3389C13.1116 13.4165 13.162 13.4864 13.2244 13.5446C13.2868 13.6028 13.36 13.6481 13.44 13.678C13.5199 13.7079 13.6049 13.7217 13.6902 13.7188H13.7356C15.6448 13.5889 20.08 13.0694 20.08 11.1927V9.88748C20.0804 8.77622 19.8601 7.67593 19.4321 6.65041C19.0041 5.62489 18.3767 4.69454 17.5864 3.9133ZM13.7038 5.50629C13.2008 4.49815 12.4876 3.60952 11.6122 2.90029C10.7368 3.60952 10.0232 4.49821 9.52026 5.50635C9.01731 6.51449 8.73629 7.61873 8.69613 8.74465C9.66482 8.64415 10.6384 8.59208 11.6122 8.58875C12.5861 8.59208 13.5592 8.64409 14.5279 8.7446C14.4877 7.61867 14.2067 6.51444 13.7038 5.50629ZM13.6577 3.05614C15.0156 4.70836 15.7895 6.76296 15.8591 8.90044H15.8526C16.8511 9.03031 17.8275 9.29462 18.7553 9.68618C18.7101 8.18557 18.1933 6.73733 17.2782 5.54715C16.3631 4.35698 15.0963 3.48537 13.6577 3.05614ZM9.56629 3.05619C8.2084 4.70841 7.4345 6.76301 7.36493 8.9005H7.37142C6.37287 9.03037 5.39647 9.29467 4.46875 9.68623C4.5139 8.18562 5.03071 6.73738 5.94579 5.54721C6.86086 4.35703 8.12767 3.48543 9.56629 3.05619Z" fill="white"/>
<path d="M23.2843 21.5793C19.8905 19.1484 15.822 17.8385 11.6474 17.8325C7.47284 17.8266 3.40069 19.125 0 21.5463L4.47566 27.8324C6.5664 26.3438 9.06997 25.5455 11.6365 25.5491C14.2031 25.5528 16.7043 26.3581 18.7909 27.8526L23.2843 21.5793Z" fill="white"/>
<path d="M38.487 23.9494C37.9213 23.9494 37.4834 23.7943 37.1731 23.4841C36.8812 23.1556 36.7352 22.7086 36.7352 22.1429V7.36229H31.3978C30.9233 7.36229 30.5492 7.23456 30.2755 6.97909C30.0201 6.70538 29.8923 6.34043 29.8923 5.88424C29.8923 5.4098 30.0201 5.05397 30.2755 4.81675C30.5492 4.56128 30.9233 4.43355 31.3978 4.43355H45.5762C46.0506 4.43355 46.4156 4.56128 46.671 4.81675C46.9448 5.05397 47.0816 5.4098 47.0816 5.88424C47.0816 6.34043 46.9448 6.70538 46.671 6.97909C46.4156 7.23456 46.0506 7.36229 45.5762 7.36229H40.2387V22.1429C40.2387 22.7086 40.0928 23.1556 39.8008 23.4841C39.5088 23.7943 39.0709 23.9494 38.487 23.9494Z" fill="white"/>
<path d="M50.774 23.9494C50.3178 23.9494 49.9255 23.8399 49.597 23.6209C49.2686 23.3837 49.004 23.0188 48.8032 22.5261L44.8344 12.3986C44.6701 11.9607 44.6154 11.5775 44.6701 11.249C44.7431 10.9023 44.9165 10.6286 45.1902 10.4279C45.4639 10.2272 45.8289 10.1268 46.2851 10.1268C46.6865 10.1268 47.015 10.2272 47.2704 10.4279C47.5259 10.6104 47.7449 10.9662 47.9273 11.4954L51.2393 20.6101H50.6098L54.0312 11.2764C54.1772 10.875 54.3688 10.583 54.606 10.4005C54.8615 10.2181 55.1899 10.1268 55.5914 10.1268C55.9928 10.1268 56.3213 10.2272 56.5767 10.4279C56.8322 10.6104 57.0238 10.8932 57.1515 11.2764L60.5182 20.6101H59.9434L63.2827 11.4133C63.4652 10.9206 63.6933 10.583 63.967 10.4005C64.259 10.2181 64.5783 10.1268 64.925 10.1268C65.363 10.1268 65.7006 10.2363 65.9378 10.4553C66.175 10.6742 66.3119 10.9571 66.3483 11.3038C66.3848 11.6322 66.321 11.9972 66.1567 12.3986L62.2153 22.5261C62.0328 23.0005 61.7682 23.3564 61.4215 23.5936C61.093 23.8308 60.7007 23.9494 60.2445 23.9494C59.7883 23.9494 59.3869 23.8308 59.0402 23.5936C58.7117 23.3564 58.4562 23.0005 58.2738 22.5261L54.6881 13.0282H56.2483L52.7447 22.4987C52.5623 22.9914 52.3068 23.3564 51.9783 23.5936C51.6499 23.8308 51.2484 23.9494 50.774 23.9494Z" fill="white"/>
<path d="M69.5382 23.922C68.9908 23.922 68.5711 23.7578 68.2791 23.4293C67.9871 23.1009 67.8412 22.6447 67.8412 22.0608V12.0154C67.8412 11.4133 67.9871 10.9571 68.2791 10.6469C68.5711 10.3184 68.9908 10.1542 69.5382 10.1542C70.0856 10.1542 70.5053 10.3184 70.7973 10.6469C71.1075 10.9571 71.2626 11.4133 71.2626 12.0154V22.0608C71.2626 22.6447 71.1166 23.1009 70.8247 23.4293C70.5327 23.7578 70.1039 23.922 69.5382 23.922ZM69.5382 7.60864C68.8995 7.60864 68.3977 7.45353 68.0328 7.14332C67.6861 6.81487 67.5127 6.3678 67.5127 5.80212C67.5127 5.2182 67.6861 4.77113 68.0328 4.46092C68.3977 4.15071 68.8995 3.99561 69.5382 3.99561C70.1951 3.99561 70.6969 4.15071 71.0436 4.46092C71.3903 4.77113 71.5637 5.2182 71.5637 5.80212C71.5637 6.3678 71.3903 6.81487 71.0436 7.14332C70.6969 7.45353 70.1951 7.60864 69.5382 7.60864Z" fill="white"/>
<path d="M75.4199 23.922C74.8724 23.922 74.4527 23.7578 74.1608 23.4293C73.8688 23.1009 73.7228 22.6447 73.7228 22.0608V12.0154C73.7228 11.4133 73.8688 10.9571 74.1608 10.6469C74.4527 10.3184 74.8724 10.1542 75.4199 10.1542C75.9673 10.1542 76.387 10.3184 76.6789 10.6469C76.9891 10.9571 77.1443 11.4133 77.1443 12.0154V22.0608C77.1443 22.6447 76.9983 23.1009 76.7063 23.4293C76.4143 23.7578 75.9855 23.922 75.4199 23.922ZM75.4199 7.60864C74.7812 7.60864 74.2794 7.45353 73.9144 7.14332C73.5677 6.81487 73.3944 6.3678 73.3944 5.80212C73.3944 5.2182 73.5677 4.77113 73.9144 4.46092C74.2794 4.15071 74.7812 3.99561 75.4199 3.99561C76.0768 3.99561 76.5786 4.15071 76.9253 4.46092C77.272 4.77113 77.4453 5.2182 77.4453 5.80212C77.4453 6.3678 77.272 6.81487 76.9253 7.14332C76.5786 7.45353 76.0768 7.60864 75.4199 7.60864Z" fill="white"/>
<path d="M84.504 24.0041C83.7193 24.0041 82.8891 23.922 82.0132 23.7578C81.1373 23.5936 80.3526 23.3107 79.6592 22.9093C79.3673 22.7268 79.1574 22.517 79.0297 22.2797C78.9202 22.0243 78.8746 21.7779 78.8928 21.5407C78.9293 21.2852 79.0206 21.0663 79.1665 20.8838C79.3308 20.7013 79.5315 20.5827 79.7687 20.528C80.0242 20.4732 80.2979 20.5188 80.5899 20.6648C81.3198 21.0115 82.004 21.2579 82.6427 21.4039C83.2814 21.5316 83.9109 21.5955 84.5313 21.5955C85.4072 21.5955 86.055 21.4495 86.4747 21.1575C86.9127 20.8473 87.1316 20.4459 87.1316 19.9532C87.1316 19.5335 86.9857 19.2141 86.6937 18.9952C86.42 18.758 86.0003 18.5846 85.4346 18.4751L82.6975 17.9551C81.5661 17.7361 80.6993 17.3255 80.0972 16.7233C79.5132 16.1029 79.2213 15.3091 79.2213 14.342C79.2213 13.4661 79.4585 12.7089 79.9329 12.0702C80.4256 11.4315 81.1008 10.9388 81.9584 10.5921C82.8161 10.2454 83.8014 10.0721 84.9145 10.0721C85.7174 10.0721 86.4656 10.1633 87.159 10.3458C87.8707 10.51 88.5549 10.7746 89.2119 11.1396C89.4856 11.2855 89.6681 11.4771 89.7593 11.7144C89.8688 11.9516 89.8962 12.1979 89.8414 12.4534C89.7867 12.6906 89.6772 12.9096 89.5129 13.1103C89.3487 13.2928 89.1389 13.4114 88.8834 13.4661C88.6462 13.5026 88.3725 13.4479 88.0623 13.3019C87.4966 13.0099 86.9492 12.8001 86.42 12.6724C85.909 12.5446 85.4164 12.4808 84.9419 12.4808C84.0478 12.4808 83.3817 12.6359 82.9438 12.9461C82.5241 13.2563 82.3143 13.6669 82.3143 14.1778C82.3143 14.561 82.442 14.8803 82.6975 15.1358C82.9529 15.3913 83.3452 15.5646 83.8744 15.6559L86.6116 16.1759C87.7977 16.3949 88.6918 16.7963 89.294 17.3803C89.9144 17.9642 90.2246 18.7488 90.2246 19.7342C90.2246 21.0663 89.7046 22.1155 88.6644 22.8819C87.6243 23.6301 86.2375 24.0041 84.504 24.0041Z" fill="white"/>
<path d="M98.4711 24.0041C96.9566 24.0041 95.6519 23.7213 94.557 23.1556C93.4621 22.59 92.6136 21.7871 92.0115 20.7469C91.4275 19.7068 91.1356 18.4751 91.1356 17.0518C91.1356 15.665 91.4184 14.4515 91.9841 13.4114C92.568 12.3713 93.3618 11.5593 94.3654 10.9753C95.3873 10.3732 96.546 10.0721 97.8416 10.0721C98.7905 10.0721 99.639 10.2272 100.387 10.5374C101.154 10.8476 101.801 11.2947 102.33 11.8786C102.878 12.4625 103.289 13.1742 103.562 14.0136C103.854 14.8347 104 15.7653 104 16.8055C104 17.1339 103.882 17.3894 103.644 17.5719C103.425 17.7361 103.106 17.8182 102.686 17.8182H93.9001V15.8475H101.591L101.154 16.258C101.154 15.4186 101.026 14.7161 100.77 14.1504C100.533 13.5847 100.177 13.1559 99.7028 12.864C99.2466 12.5537 98.6718 12.3986 97.9784 12.3986C97.212 12.3986 96.5551 12.5811 96.0077 12.9461C95.4785 13.2928 95.0679 13.7946 94.776 14.4515C94.5023 15.0902 94.3654 15.8566 94.3654 16.7507V16.9423C94.3654 18.4386 94.7121 19.5608 95.4055 20.309C96.1172 21.0389 97.1573 21.4039 98.5259 21.4039C99.0003 21.4039 99.5295 21.3491 100.113 21.2396C100.716 21.1119 101.281 20.902 101.81 20.6101C102.194 20.3911 102.531 20.2999 102.823 20.3364C103.115 20.3546 103.343 20.455 103.507 20.6375C103.69 20.8199 103.799 21.048 103.836 21.3217C103.872 21.5772 103.818 21.8418 103.672 22.1155C103.544 22.3892 103.316 22.6265 102.987 22.8272C102.349 23.2286 101.61 23.5297 100.77 23.7304C99.9492 23.9129 99.1828 24.0041 98.4711 24.0041Z" fill="white"/>
</svg>
