<svg width="16" height="18" viewBox="0 0 16 18" fill="none" xmlns="http://www.w3.org/2000/svg">
<g id="person-circle-sharp">
<path id="Vector" d="M8 3.5C4.41594 3.5 1.5 6.41594 1.5 10C1.5 13.5841 4.41594 16.5 8 16.5C11.5841 16.5 14.5 13.5841 14.5 10C14.5 6.41594 11.5841 3.5 8 3.5ZM8.0625 6.5C8.50751 6.5 8.94252 6.63196 9.31253 6.87919C9.68254 7.12643 9.97093 7.47783 10.1412 7.88896C10.3115 8.3001 10.3561 8.7525 10.2693 9.18895C10.1825 9.62541 9.96816 10.0263 9.65349 10.341C9.33882 10.6557 8.93791 10.87 8.50145 10.9568C8.065 11.0436 7.6126 10.999 7.20146 10.8287C6.79033 10.6584 6.43893 10.37 6.19169 10C5.94446 9.63002 5.8125 9.19501 5.8125 8.75C5.8125 8.15326 6.04955 7.58097 6.47151 7.15901C6.89347 6.73705 7.46576 6.5 8.0625 6.5ZM8 15.5C7.24139 15.5003 6.49097 15.3433 5.79613 15.0388C5.10129 14.7344 4.47715 14.2892 3.96312 13.7312C4.23937 12.3006 6.72063 12 8 12C9.27937 12 11.7606 12.3006 12.0369 13.7309C11.5229 14.289 10.8988 14.7343 10.2039 15.0388C9.5091 15.3433 8.75864 15.5003 8 15.5Z" fill="#898685"/>
</g>
</svg>
