<svg width="18" height="19" viewBox="0 0 18 19" fill="none" xmlns="http://www.w3.org/2000/svg">
<g id="search">
<path id="Vector" d="M16.0555 15.3145L12.7477 12.0066C13.544 10.9465 13.9739 9.65598 13.9725 8.33C13.9725 4.94305 11.217 2.1875 7.83 2.1875C4.44305 2.1875 1.6875 4.94305 1.6875 8.33C1.6875 11.717 4.44305 14.4725 7.83 14.4725C9.15598 14.4739 10.4465 14.044 11.5066 13.2477L14.8145 16.5555C14.9819 16.7052 15.2003 16.7851 15.4248 16.7788C15.6493 16.7725 15.8629 16.6805 16.0217 16.5217C16.1805 16.3629 16.2725 16.1493 16.2788 15.9248C16.2851 15.7003 16.2052 15.4819 16.0555 15.3145ZM3.4425 8.33C3.4425 7.46223 3.69982 6.61396 4.18193 5.89244C4.66403 5.17092 5.34927 4.60856 6.15098 4.27648C6.95269 3.9444 7.83487 3.85751 8.68596 4.0268C9.53705 4.1961 10.3188 4.61397 10.9324 5.22757C11.546 5.84117 11.9639 6.62295 12.1332 7.47404C12.3025 8.32513 12.2156 9.20731 11.8835 10.009C11.5514 10.8107 10.9891 11.496 10.2676 11.9781C9.54604 12.4602 8.69777 12.7175 7.83 12.7175C6.66679 12.7161 5.55162 12.2534 4.72911 11.4309C3.9066 10.6084 3.4439 9.49321 3.4425 8.33Z" fill="#2F65C6"/>
</g>
</svg>
